<?xml version="1.0" encoding="UTF-8" standalone="no"?>
<!-- Created with Inkscape (http://www.inkscape.org/) -->

<svg
   version="1.1"
   id="svg2"
   width="410.66666"
   height="82.666664"
   viewBox="0 0 410.66666 82.666664"
   sodipodi:docname="MyAnimeList.eps"
   xmlns:inkscape="http://www.inkscape.org/namespaces/inkscape"
   xmlns:sodipodi="http://sodipodi.sourceforge.net/DTD/sodipodi-0.dtd"
   xmlns="http://www.w3.org/2000/svg"
   xmlns:svg="http://www.w3.org/2000/svg">
  <defs
     id="defs6" />
  <sodipodi:namedview
     id="namedview4"
     bordercolor="#000000"
     borderopacity="0.25"
     inkscape:showpageshadow="2"
     inkscape:pageopacity="0.0"
     inkscape:pagecheckerboard="0"
     inkscape:deskcolor="#d1d1d1" />
  <g
     id="g8"
     inkscape:groupmode="layer"
     inkscape:label="ink_ext_XXXXXX"
     transform="matrix(1.3333333,0,0,-1.3333333,0,82.666667)">
    <g
       id="g10"
       transform="scale(0.1)">
      <path
         d="M 474.77,535.371 H 382.66 L 301.91,426.469 222.969,535.371 h -92.11 v -370.66 h 97.11 v 224.098 h 0.902 l 73.039,-99.797 74.852,99.797 h 0.937 V 164.711 h 97.071 z"
         style="fill:#2f51a2;fill-opacity:1;fill-rule:nonzero;stroke:none"
         id="path14" />
      <path
         d="M 773.949,438.73 H 677.77 L 638.281,308.969 h -0.902 L 597.891,438.73 H 494.449 L 592.461,188.301 549.801,70.3398 h 93.48 z"
         style="fill:#2f51a2;fill-opacity:1;fill-rule:nonzero;stroke:none"
         id="path16" />
      <path
         d="m 1075.43,440.531 h -97.071 v -74.84 h -96.64 c 3.59,11.047 9.261,23.2 17.031,36.438 7.809,13.242 20.66,24.73 38.629,34.461 17.973,9.719 44.031,14.801 78.171,15.308 h 76.21 l -22.66,83.473 h -47.65 c -34.93,0.707 -67.501,-2.891 -97.778,-10.851 -30.274,-7.93 -58.32,-24.571 -84.141,-49.969 -23.051,-23.629 -39.922,-50.973 -50.703,-82.102 -10.777,-31.097 -16.129,-63.008 -16.019,-95.75 0.203,-32.847 5.32,-65 15.39,-96.328 10.082,-31.359 24.18,-60.621 42.231,-87.851 l 78.949,52.191 c -10.828,17.769 -19.649,36.559 -26.41,56.367 -6.758,19.801 -10.348,40.192 -10.778,61.133 h 106.168 v -117.5 h 97.071 z"
         style="fill:#2f51a2;fill-opacity:1;fill-rule:nonzero;stroke:none"
         id="path18" />
      <path
         d="M 1130.23,438.73 V 164.711 h 87.11 v 200.078 h 20.86 c 17.62,-0.039 28.44,-3.051 32.5,-9.098 4.07,-6.019 5.94,-17.66 5.63,-34.921 V 164.711 h 87.11 v 168.75 c 0.54,36.129 -6.49,62.769 -21.1,79.84 -14.64,17.109 -40.27,25.59 -76.91,25.429 z"
         style="fill:#2f51a2;fill-opacity:1;fill-rule:nonzero;stroke:none"
         id="path20" />
      <path
         d="m 1498.71,438.73 h -87.1094 V 164.71 h 87.1094 z m 0,96.641 h -87.1094 v -73.9414 h 87.1094 z"
         style="fill:#2f51a2;fill-opacity:1;fill-rule:nonzero;stroke:none"
         id="path22" />
      <path
         d="M 1548.05,438.73 V 164.711 h 84.84 v 200.078 h 52.19 V 164.711 h 84.84 v 200.078 h 14.06 c 17.62,-0.039 28.44,-3.051 32.5,-9.098 4.03,-6.019 5.9,-17.66 5.59,-34.921 V 164.711 h 84.84 v 168.75 c 0.59,36.129 -6.44,62.769 -21.09,79.84 -14.61,17.109 -40.27,25.59 -76.87,25.429 z"
         style="fill:#2f51a2;fill-opacity:1;fill-rule:nonzero;stroke:none"
         id="path24" />
      <path
         d="m 2174.8,238.66 h -34.49 c -7.11,-0.121 -14.68,0.07 -22.81,0.621 -8.09,0.508 -17.73,1.949 -28.91,4.379 24.96,13.121 47.5,29.801 67.54,50.039 20.04,20.27 30.67,45.461 31.8,75.621 0.74,5.2 -0.23,13.789 -2.89,25.66 -2.66,11.918 -11.25,23.09 -25.78,33.481 -14.57,10.391 -39.34,15.937 -74.3,16.598 h -18.16 c -44.46,0.781 -76.53,-8.008 -96.17,-26.36 -19.65,-18.328 -29.46,-46.758 -29.5,-85.238 1.21,-47.109 16.84,-86.723 46.96,-118.75 30.11,-32.031 67.54,-48.711 112.3,-50 h 52.62 z m -75.78,118.391 c -1.48,-12.18 -9.64,-23.86 -24.57,-35 -14.88,-11.09 -27.73,-19.25 -38.51,-24.41 -1.8,5.23 -3.24,10.629 -4.3,16.129 -1.01,5.55 -1.56,11.058 -1.6,16.531 0.08,13.59 3.71,23.82 10.9,30.621 7.22,6.797 17.65,10.199 31.33,10.199 5.66,0.309 11.44,-0.281 17.26,-1.762 5.86,-1.449 9.02,-5.55 9.49,-12.308 z"
         style="fill:#2f51a2;fill-opacity:1;fill-rule:nonzero;stroke:none"
         id="path26" />
      <path
         d="m 2324.1,535.371 h -97.11 v -370.66 h 201.92 l 22.65,83.48 H 2324.1 Z"
         style="fill:#2f51a2;fill-opacity:1;fill-rule:nonzero;stroke:none"
         id="path28" />
      <path
         d="m 2551.41,438.73 h -87.1094 V 164.71 h 87.1094 z m 0,96.641 h -87.1094 v -73.9414 h 87.1094 z"
         style="fill:#2f51a2;fill-opacity:1;fill-rule:nonzero;stroke:none"
         id="path30" />
      <path
         d="m 2733.71,438.73 h -73.05 c -28.86,-1.441 -48.47,-9.57 -58.86,-24.371 -10.39,-14.839 -15.28,-27.738 -14.65,-38.711 0.23,-12.109 2.85,-23.128 7.97,-33.046 5.08,-9.922 11.33,-19.454 18.83,-28.633 l 36.71,-47.66 c 2.11,-2.61 4.61,-5.969 7.5,-9.957 2.89,-4.024 4.5,-7.813 4.77,-11.372 -0.86,-5.191 -5.04,-7.691 -12.58,-7.421 -7.54,0.281 -13.32,0.632 -17.38,1.101 h -48.09 l 21.8,-73.949 h 88.48 c 21.29,0.59 38,7.418 50.07,20.469 12.07,13.011 18.21,28.59 18.4,46.679 -0.15,11.993 -2.73,23.161 -7.69,33.512 -4.96,10.359 -11.17,20.039 -18.6,29.07 l -38.55,48.547 c -1.52,1.84 -3.05,3.953 -4.65,6.293 -1.64,2.379 -2.5,4.809 -2.62,7.34 -0.11,4.18 1.72,7 5.51,8.438 3.79,1.41 10.27,2.07 19.45,1.992 h 38.99 z"
         style="fill:#2f51a2;fill-opacity:1;fill-rule:nonzero;stroke:none"
         id="path32" />
      <path
         d="m 2891.33,518.109 -87.11,-25.859 v -53.52 h -19.49 v -71.679 h 19.49 v -118.43 c 0.47,-32.461 8.28,-54.73 23.44,-66.801 15.15,-12.07 34.88,-17.769 59.14,-17.109 h 39.49 l 21.76,73.949 h -34.46 c -8.86,0.578 -14.84,3.121 -17.93,7.57 -3.08,4.5 -4.53,9.969 -4.33,16.45 v 104.371 h 45.86 v 71.679 h -45.86 z"
         style="fill:#2f51a2;fill-opacity:1;fill-rule:nonzero;stroke:none"
         id="path34" />
    </g>
  </g>
</svg>
